<mxfile host="app.diagrams.net" modified="2023-08-05T23:00:19.509Z" agent="Mozilla/5.0 (Windows NT 10.0; Win64; x64) AppleWebKit/537.36 (KHTML, like Gecko) Chrome/115.0.0.0 Safari/537.36" etag="3cCVQtVMPpHxCRZ86evC" version="21.6.6" type="device">
  <diagram name="Page-1" id="gNIj_MWLJX6NQbAEu-Pq">
    <mxGraphModel dx="659" dy="376" grid="1" gridSize="10" guides="1" tooltips="1" connect="1" arrows="1" fold="1" page="1" pageScale="1" pageWidth="1169" pageHeight="827" math="0" shadow="0">
      <root>
        <mxCell id="0" />
        <mxCell id="1" parent="0" />
        <mxCell id="Agp9C50Ta-joziqRM7GG-6" style="edgeStyle=orthogonalEdgeStyle;rounded=0;orthogonalLoop=1;jettySize=auto;html=1;entryX=0;entryY=0.5;entryDx=0;entryDy=0;" parent="1" source="Agp9C50Ta-joziqRM7GG-1" target="Agp9C50Ta-joziqRM7GG-2" edge="1">
          <mxGeometry relative="1" as="geometry" />
        </mxCell>
        <mxCell id="Agp9C50Ta-joziqRM7GG-1" value="&lt;font style=&quot;font-size: 9px;&quot;&gt;Init&lt;/font&gt;" style="ellipse;whiteSpace=wrap;html=1;aspect=fixed;" parent="1" vertex="1">
          <mxGeometry x="180" y="120" width="40" height="40" as="geometry" />
        </mxCell>
        <mxCell id="Agp9C50Ta-joziqRM7GG-2" value="&lt;font style=&quot;font-size: 9px;&quot;&gt;Idle&lt;/font&gt;" style="ellipse;whiteSpace=wrap;html=1;aspect=fixed;" parent="1" vertex="1">
          <mxGeometry x="290" y="120" width="40" height="40" as="geometry" />
        </mxCell>
        <mxCell id="Agp9C50Ta-joziqRM7GG-3" value="&lt;font style=&quot;font-size: 9px;&quot;&gt;Auto-Refresh&lt;/font&gt;" style="ellipse;whiteSpace=wrap;html=1;aspect=fixed;" parent="1" vertex="1">
          <mxGeometry x="405" y="115" width="50" height="50" as="geometry" />
        </mxCell>
        <mxCell id="Agp9C50Ta-joziqRM7GG-4" value="&lt;font style=&quot;font-size: 9px;&quot;&gt;Read&lt;/font&gt;" style="ellipse;whiteSpace=wrap;html=1;aspect=fixed;" parent="1" vertex="1">
          <mxGeometry x="410" y="200" width="40" height="40" as="geometry" />
        </mxCell>
        <mxCell id="Agp9C50Ta-joziqRM7GG-5" value="&lt;font style=&quot;font-size: 9px;&quot;&gt;Write&lt;/font&gt;" style="ellipse;whiteSpace=wrap;html=1;aspect=fixed;" parent="1" vertex="1">
          <mxGeometry x="410" y="40" width="40" height="40" as="geometry" />
        </mxCell>
        <mxCell id="JAz6kw1yCCeFPVoNdb72-1" value="" style="curved=1;endArrow=classic;html=1;rounded=0;entryX=0;entryY=0.5;entryDx=0;entryDy=0;" edge="1" parent="1" target="Agp9C50Ta-joziqRM7GG-5">
          <mxGeometry width="50" height="50" relative="1" as="geometry">
            <mxPoint x="310" y="120" as="sourcePoint" />
            <mxPoint x="360" y="70" as="targetPoint" />
            <Array as="points">
              <mxPoint x="310" y="90" />
              <mxPoint x="360" y="60" />
            </Array>
          </mxGeometry>
        </mxCell>
        <mxCell id="JAz6kw1yCCeFPVoNdb72-2" value="" style="curved=1;endArrow=classic;html=1;rounded=0;exitX=0.5;exitY=1;exitDx=0;exitDy=0;entryX=0;entryY=0.5;entryDx=0;entryDy=0;" edge="1" parent="1" source="Agp9C50Ta-joziqRM7GG-2" target="Agp9C50Ta-joziqRM7GG-4">
          <mxGeometry width="50" height="50" relative="1" as="geometry">
            <mxPoint x="350" y="160" as="sourcePoint" />
            <mxPoint x="300" y="210" as="targetPoint" />
            <Array as="points">
              <mxPoint x="310" y="190" />
              <mxPoint x="350" y="220" />
            </Array>
          </mxGeometry>
        </mxCell>
        <mxCell id="JAz6kw1yCCeFPVoNdb72-11" value="&lt;font style=&quot;font-size: 9px;&quot;&gt;Ready&lt;/font&gt;" style="edgeStyle=orthogonalEdgeStyle;rounded=0;orthogonalLoop=1;jettySize=auto;html=1;entryX=1;entryY=0.5;entryDx=0;entryDy=0;" edge="1" parent="1" source="JAz6kw1yCCeFPVoNdb72-3" target="Agp9C50Ta-joziqRM7GG-3">
          <mxGeometry relative="1" as="geometry" />
        </mxCell>
        <mxCell id="JAz6kw1yCCeFPVoNdb72-3" value="&lt;font style=&quot;font-size: 9px;&quot;&gt;Idle 2&lt;/font&gt;" style="ellipse;whiteSpace=wrap;html=1;aspect=fixed;" vertex="1" parent="1">
          <mxGeometry x="520" y="120" width="40" height="40" as="geometry" />
        </mxCell>
        <mxCell id="JAz6kw1yCCeFPVoNdb72-5" value="&lt;font style=&quot;font-size: 9px;&quot;&gt;Ready#&lt;/font&gt;" style="curved=1;endArrow=classic;html=1;rounded=0;exitX=1;exitY=0.5;exitDx=0;exitDy=0;entryX=0.5;entryY=0;entryDx=0;entryDy=0;" edge="1" parent="1" source="Agp9C50Ta-joziqRM7GG-5" target="JAz6kw1yCCeFPVoNdb72-3">
          <mxGeometry width="50" height="50" relative="1" as="geometry">
            <mxPoint x="460" y="70" as="sourcePoint" />
            <mxPoint x="510" y="20" as="targetPoint" />
            <Array as="points">
              <mxPoint x="480" y="60" />
              <mxPoint x="530" y="90" />
            </Array>
          </mxGeometry>
        </mxCell>
        <mxCell id="JAz6kw1yCCeFPVoNdb72-6" value="&lt;font style=&quot;font-size: 9px;&quot;&gt;Ready#&lt;/font&gt;" style="curved=1;endArrow=classic;html=1;rounded=0;exitX=1;exitY=0.5;exitDx=0;exitDy=0;entryX=0.461;entryY=1.092;entryDx=0;entryDy=0;entryPerimeter=0;" edge="1" parent="1" source="Agp9C50Ta-joziqRM7GG-4" target="JAz6kw1yCCeFPVoNdb72-3">
          <mxGeometry width="50" height="50" relative="1" as="geometry">
            <mxPoint x="460" y="220" as="sourcePoint" />
            <mxPoint x="510" y="170" as="targetPoint" />
            <Array as="points">
              <mxPoint x="490" y="220" />
              <mxPoint x="530" y="200" />
            </Array>
          </mxGeometry>
        </mxCell>
        <mxCell id="JAz6kw1yCCeFPVoNdb72-7" value="&lt;font style=&quot;font-size: 9px;&quot;&gt;Ready&lt;/font&gt;" style="curved=1;endArrow=classic;html=1;rounded=0;exitX=0;exitY=0;exitDx=0;exitDy=0;entryX=0.958;entryY=0.748;entryDx=0;entryDy=0;entryPerimeter=0;" edge="1" parent="1" source="JAz6kw1yCCeFPVoNdb72-3" target="Agp9C50Ta-joziqRM7GG-5">
          <mxGeometry width="50" height="50" relative="1" as="geometry">
            <mxPoint x="520" y="130" as="sourcePoint" />
            <mxPoint x="440" y="70" as="targetPoint" />
            <Array as="points">
              <mxPoint x="490" y="110" />
              <mxPoint x="460" y="90" />
            </Array>
          </mxGeometry>
        </mxCell>
        <mxCell id="JAz6kw1yCCeFPVoNdb72-8" value="&lt;font style=&quot;font-size: 9px;&quot;&gt;Ready&lt;/font&gt;" style="curved=1;endArrow=classic;html=1;rounded=0;exitX=0.216;exitY=0.915;exitDx=0;exitDy=0;exitPerimeter=0;entryX=1;entryY=0;entryDx=0;entryDy=0;" edge="1" parent="1" source="JAz6kw1yCCeFPVoNdb72-3" target="Agp9C50Ta-joziqRM7GG-4">
          <mxGeometry x="0.1372" y="7" width="50" height="50" relative="1" as="geometry">
            <mxPoint x="428" y="98" as="sourcePoint" />
            <mxPoint x="440" y="210" as="targetPoint" />
            <Array as="points">
              <mxPoint x="480" y="170" />
            </Array>
            <mxPoint as="offset" />
          </mxGeometry>
        </mxCell>
        <mxCell id="JAz6kw1yCCeFPVoNdb72-12" value="&lt;font style=&quot;font-size: 7px;&quot;&gt;Refresh Request&lt;/font&gt;" style="curved=1;endArrow=classic;html=1;rounded=0;exitX=1;exitY=1;exitDx=0;exitDy=0;entryX=0;entryY=1;entryDx=0;entryDy=0;verticalAlign=middle;" edge="1" parent="1" source="Agp9C50Ta-joziqRM7GG-2" target="Agp9C50Ta-joziqRM7GG-3">
          <mxGeometry x="-0.1335" y="-10" width="50" height="50" relative="1" as="geometry">
            <mxPoint x="410" y="170" as="sourcePoint" />
            <mxPoint x="420" y="160" as="targetPoint" />
            <Array as="points">
              <mxPoint x="340" y="170" />
              <mxPoint x="390" y="170" />
            </Array>
            <mxPoint as="offset" />
          </mxGeometry>
        </mxCell>
        <mxCell id="JAz6kw1yCCeFPVoNdb72-15" value="&lt;font style=&quot;font-size: 7px;&quot;&gt;Clear Refresh Request&lt;/font&gt;" style="curved=1;endArrow=classic;html=1;rounded=0;exitX=0.091;exitY=0.147;exitDx=0;exitDy=0;entryX=0.75;entryY=0;entryDx=0;entryDy=0;verticalAlign=middle;exitPerimeter=0;entryPerimeter=0;" edge="1" parent="1" source="Agp9C50Ta-joziqRM7GG-3" target="Agp9C50Ta-joziqRM7GG-2">
          <mxGeometry x="-0.0973" y="-10" width="50" height="50" relative="1" as="geometry">
            <mxPoint x="410" y="98" as="sourcePoint" />
            <mxPoint x="322" y="94" as="targetPoint" />
            <Array as="points">
              <mxPoint x="390" y="110" />
              <mxPoint x="338" y="110" />
            </Array>
            <mxPoint as="offset" />
          </mxGeometry>
        </mxCell>
      </root>
    </mxGraphModel>
  </diagram>
</mxfile>
